<svg width="383" height="228" viewBox="0 0 383 228" fill="none" xmlns="http://www.w3.org/2000/svg">
<path d="M220.924 131.353C219.998 128.833 218.27 123.864 217.081 118.903C216.469 116.351 216.071 114.075 215.891 112.115L215.867 111.903C215.825 111.404 215.782 110.795 215.733 110.102C215.392 105.323 214.822 97.321 212.795 92.9576C212.246 91.7752 211.563 90.621 210.574 89.5759C212.781 89.048 214.424 87.0669 214.424 84.6987C214.424 81.9257 212.175 79.6807 209.406 79.6807C206.637 79.6807 204.388 81.9257 204.388 84.6987C204.388 85.2265 204.469 85.7332 204.62 86.2083C202.242 85.5291 199.184 85.128 195.183 85.128C191.182 85.128 188.106 85.5678 185.717 86.2786C185.882 85.7825 185.974 85.2511 185.974 84.6987C185.974 81.9257 183.729 79.6807 180.956 79.6807C178.183 79.6807 175.938 81.9257 175.938 84.6987C175.938 87.088 177.609 89.0832 179.844 89.59C178.777 90.6738 178.084 91.8385 177.563 92.9576C175.536 97.3245 174.966 105.323 174.625 110.105C174.576 110.799 174.534 111.407 174.484 111.949L174.463 112.132C174.287 114.071 173.886 116.351 173.274 118.906C172.084 123.878 170.357 128.84 169.431 131.356C169.178 132.046 169.283 132.806 169.723 133.436C171.205 135.558 183.866 142.208 195.172 142.208C206.478 142.208 219.143 135.554 220.624 133.432C221.064 132.802 221.17 132.046 220.917 131.356L220.924 131.353Z" stroke="#066AFE" stroke-width="5" stroke-linecap="round" stroke-linejoin="round"/>
<mask id="path-2-inside-1_5963_66911" fill="white">
<path d="M195.228 104.961C197.054 104.961 198.786 105.337 199.859 105.967C201.006 106.643 202.104 107.346 202.931 108.553C203.487 109.366 203.934 110.334 204.258 111.432C204.705 112.949 204.93 114.761 204.93 116.823C204.93 120.011 204.93 121.771 203.842 124.086C202.192 127.601 199.257 129.459 195.355 129.463H195.01C193.972 129.463 188.686 129.199 186.508 124.075C185.526 121.767 185.424 120.092 185.424 116.823C185.424 114.761 185.65 112.949 186.097 111.432C186.42 110.331 186.867 109.363 187.427 108.546C188.299 107.273 189.471 106.523 190.506 105.956C191.667 105.32 193.388 104.954 195.225 104.954M195.228 103.201C193.194 103.201 191.146 103.606 189.665 104.419C188.521 105.045 187.064 105.971 185.977 107.558C185.315 108.525 184.787 109.662 184.411 110.939C183.918 112.618 183.668 114.595 183.668 116.826C183.668 120.264 183.788 122.168 184.89 124.765C187.497 130.909 193.775 131.226 195.01 131.226H195.358C199.926 131.226 203.505 128.956 205.437 124.839C206.693 122.168 206.693 120.159 206.693 116.826C206.693 114.595 206.443 112.614 205.95 110.939C205.574 109.662 205.049 108.525 204.384 107.561C203.353 106.055 202.027 105.2 200.753 104.45C199.335 103.616 197.294 103.201 195.232 103.201H195.228Z"/>
</mask>
<path d="M195.228 104.961C197.054 104.961 198.786 105.337 199.859 105.967C201.006 106.643 202.104 107.346 202.931 108.553C203.487 109.366 203.934 110.334 204.258 111.432C204.705 112.949 204.93 114.761 204.93 116.823C204.93 120.011 204.93 121.771 203.842 124.086C202.192 127.601 199.257 129.459 195.355 129.463H195.01C193.972 129.463 188.686 129.199 186.508 124.075C185.526 121.767 185.424 120.092 185.424 116.823C185.424 114.761 185.65 112.949 186.097 111.432C186.42 110.331 186.867 109.363 187.427 108.546C188.299 107.273 189.471 106.523 190.506 105.956C191.667 105.32 193.388 104.954 195.225 104.954M195.228 103.201C193.194 103.201 191.146 103.606 189.665 104.419C188.521 105.045 187.064 105.971 185.977 107.558C185.315 108.525 184.787 109.662 184.411 110.939C183.918 112.618 183.668 114.595 183.668 116.826C183.668 120.264 183.788 122.168 184.89 124.765C187.497 130.909 193.775 131.226 195.01 131.226H195.358C199.926 131.226 203.505 128.956 205.437 124.839C206.693 122.168 206.693 120.159 206.693 116.826C206.693 114.595 206.443 112.614 205.95 110.939C205.574 109.662 205.049 108.525 204.384 107.561C203.353 106.055 202.027 105.2 200.753 104.45C199.335 103.616 197.294 103.201 195.232 103.201H195.228Z" fill="#066AFE"/>
<path d="M199.859 105.967L200.366 105.105L200.365 105.105L199.859 105.967ZM202.931 108.553L203.756 107.989L203.756 107.988L202.931 108.553ZM204.258 111.432L205.217 111.149L205.217 111.149L204.258 111.432ZM203.842 124.086L202.937 123.661L202.937 123.661L203.842 124.086ZM195.355 129.463V130.463H195.356L195.355 129.463ZM186.508 124.075L187.428 123.684L187.428 123.684L186.508 124.075ZM186.097 111.432L187.056 111.715L187.056 111.714L186.097 111.432ZM187.427 108.546L188.252 109.112L188.252 109.112L187.427 108.546ZM190.506 105.956L190.986 106.834L190.987 106.833L190.506 105.956ZM189.665 104.419L190.145 105.296L190.146 105.295L189.665 104.419ZM185.977 107.558L185.152 106.992L185.151 106.993L185.977 107.558ZM184.411 110.939L183.452 110.657L183.451 110.658L184.411 110.939ZM184.89 124.765L183.969 125.156L183.969 125.156L184.89 124.765ZM205.437 124.839L204.532 124.413L204.531 124.414L205.437 124.839ZM205.95 110.939L206.91 110.657L206.909 110.657L205.95 110.939ZM204.384 107.561L203.559 108.126L203.561 108.129L204.384 107.561ZM200.753 104.45L201.26 103.589L201.26 103.588L200.753 104.45ZM195.228 104.961V105.961C196.954 105.961 198.488 106.322 199.353 106.829L199.859 105.967L200.365 105.105C199.083 104.352 197.155 103.961 195.228 103.961V104.961ZM199.859 105.967L199.352 106.829C200.489 107.498 201.414 108.109 202.106 109.119L202.931 108.553L203.756 107.988C202.794 106.584 201.524 105.787 200.366 105.105L199.859 105.967ZM202.931 108.553L202.106 109.118C202.594 109.832 203 110.702 203.298 111.715L204.258 111.432L205.217 111.149C204.868 109.966 204.38 108.9 203.756 107.989L202.931 108.553ZM204.258 111.432L203.298 111.715C203.711 113.116 203.93 114.829 203.93 116.823H204.93H205.93C205.93 114.693 205.698 112.781 205.217 111.149L204.258 111.432ZM204.93 116.823H203.93C203.93 120.03 203.917 121.574 202.937 123.661L203.842 124.086L204.748 124.511C205.942 121.967 205.93 119.992 205.93 116.823H204.93ZM203.842 124.086L202.937 123.661C201.453 126.823 198.872 128.46 195.354 128.463L195.355 129.463L195.356 130.463C199.643 130.459 202.931 128.38 204.748 124.511L203.842 124.086ZM195.355 129.463V128.463H195.01V129.463V130.463H195.355V129.463ZM195.01 129.463V128.463C194.017 128.463 189.346 128.195 187.428 123.684L186.508 124.075L185.588 124.467C188.027 130.203 193.927 130.463 195.01 130.463V129.463ZM186.508 124.075L187.428 123.684C186.53 121.571 186.424 120.067 186.424 116.823H185.424H184.424C184.424 120.117 184.523 121.963 185.588 124.467L186.508 124.075ZM185.424 116.823H186.424C186.424 114.829 186.643 113.116 187.056 111.715L186.097 111.432L185.137 111.149C184.656 112.781 184.424 114.693 184.424 116.823H185.424ZM186.097 111.432L187.056 111.714C187.354 110.698 187.76 109.829 188.252 109.112L187.427 108.546L186.602 107.981C185.975 108.896 185.486 109.963 185.137 111.15L186.097 111.432ZM187.427 108.546L188.252 109.112C188.989 108.035 189.993 107.377 190.986 106.834L190.506 105.956L190.025 105.079C188.949 105.669 187.609 106.511 186.602 107.981L187.427 108.546ZM190.506 105.956L190.987 106.833C191.955 106.302 193.494 105.954 195.225 105.954V104.954V103.954C193.281 103.954 191.379 104.337 190.025 105.08L190.506 105.956ZM195.228 103.201V102.201C193.087 102.201 190.858 102.623 189.184 103.542L189.665 104.419L190.146 105.295C191.434 104.588 193.302 104.201 195.228 104.201V103.201ZM189.665 104.419L189.184 103.542C187.995 104.193 186.373 105.211 185.152 106.992L185.977 107.558L186.802 108.123C187.756 106.73 189.047 105.897 190.145 105.296L189.665 104.419ZM185.977 107.558L185.151 106.993C184.424 108.057 183.854 109.291 183.452 110.657L184.411 110.939L185.37 111.222C185.721 110.033 186.207 108.993 186.802 108.122L185.977 107.558ZM184.411 110.939L183.451 110.658C182.926 112.449 182.668 114.525 182.668 116.826H183.668H184.668C184.668 114.666 184.911 112.787 185.37 111.221L184.411 110.939ZM183.668 116.826H182.668C182.668 120.296 182.786 122.367 183.969 125.156L184.89 124.765L185.81 124.375C184.79 121.97 184.668 120.233 184.668 116.826H183.668ZM184.89 124.765L183.969 125.156C186.835 131.91 193.725 132.226 195.01 132.226V131.226V130.226C193.825 130.226 188.159 129.908 185.81 124.374L184.89 124.765ZM195.01 131.226V132.226H195.358V131.226V130.226H195.01V131.226ZM195.358 131.226V132.226C200.312 132.226 204.244 129.734 206.342 125.264L205.437 124.839L204.531 124.414C202.765 128.179 199.54 130.226 195.358 130.226V131.226ZM205.437 124.839L206.341 125.265C207.704 122.368 207.693 120.149 207.693 116.826H206.693H205.693C205.693 120.169 205.682 121.968 204.532 124.413L205.437 124.839ZM206.693 116.826H207.693C207.693 114.525 207.435 112.445 206.91 110.657L205.95 110.939L204.991 111.221C205.45 112.784 205.693 114.666 205.693 116.826H206.693ZM205.95 110.939L206.909 110.657C206.508 109.293 205.941 108.057 205.208 106.993L204.384 107.561L203.561 108.129C204.158 108.993 204.64 110.031 204.991 111.222L205.95 110.939ZM204.384 107.561L205.21 106.996C204.047 105.298 202.555 104.35 201.26 103.589L200.753 104.45L200.246 105.312C201.498 106.049 202.66 106.812 203.559 108.126L204.384 107.561ZM200.753 104.45L201.26 103.588C199.635 102.633 197.398 102.201 195.232 102.201V103.201V104.201C197.19 104.201 199.035 104.6 200.246 105.312L200.753 104.45ZM195.232 103.201V102.201H195.228V103.201V104.201H195.232V103.201Z" fill="#066AFE" mask="url(#path-2-inside-1_5963_66911)"/>
<path d="M181.835 96.1987C184.706 95.0215 187.669 95.0489 190.653 95.854L190.654 95.855C192.127 96.2489 193.628 96.5679 195.158 96.5679H195.163C196.685 96.5532 198.181 96.2499 199.661 95.855L199.662 95.854C202.647 95.0522 205.609 95.0222 208.479 96.1987V96.1997C208.803 96.3335 209.127 96.5272 209.471 96.7397L209.729 96.3208V96.3853L209.504 96.7349C209.768 96.9058 209.93 97.0834 210.017 97.2681C210.101 97.4481 210.137 97.6799 210.076 98.0015L210.075 98.0054C209.933 98.7819 209.816 99.5623 209.701 100.334C209.586 101.11 209.472 101.877 209.333 102.64V102.641C209.097 103.951 208.236 104.812 206.95 104.93L206.948 104.931C204.862 105.13 202.767 105.235 200.678 105.27H200.676C199.91 105.286 199.3 105.12 198.837 104.793C198.377 104.47 198.013 103.954 197.797 103.182L197.796 103.18L197.455 101.994C197.11 100.806 196.751 99.616 196.36 98.4312C196.27 98.152 196.084 97.9381 195.941 97.7905C195.764 97.6072 195.669 97.5317 195.562 97.4048L195.186 96.9536L194.801 97.3989C194.753 97.4537 194.697 97.5108 194.629 97.5776C194.565 97.64 194.485 97.7171 194.412 97.7935C194.269 97.9426 194.087 98.1537 193.997 98.4302C193.473 100.01 193.009 101.599 192.562 103.181V103.182C192.345 103.954 191.982 104.47 191.521 104.793C191.058 105.12 190.448 105.286 189.683 105.27H189.681C187.58 105.235 185.496 105.13 183.41 104.931H183.408C182.206 104.821 181.379 104.068 181.078 102.881L181.025 102.638C180.887 101.881 180.772 101.114 180.656 100.338C180.541 99.565 180.425 98.7819 180.282 98.0054C180.221 97.6701 180.257 97.4373 180.34 97.2612C180.424 97.0818 180.581 96.9085 180.851 96.7368L180.861 96.73C181.171 96.5225 181.497 96.3391 181.836 96.1997L181.835 96.1987Z" fill="#066AFE" stroke="#066AFE"/>
<path d="M194.028 114.873L193.731 114.74C193.688 114.721 193.645 114.704 193.617 114.693L193.555 114.668C193.05 114.424 192.577 114.064 192.173 113.584L192.171 113.582C191.936 113.306 191.768 113.04 191.657 112.787L191.656 112.785C191.547 112.537 191.495 112.299 191.495 112.083C191.495 111.886 191.54 111.694 191.626 111.52C191.712 111.345 191.843 111.178 192.016 111.03C192.371 110.729 192.893 110.497 193.591 110.353L193.59 110.352C194.051 110.257 194.584 110.208 195.183 110.208C195.852 110.208 196.436 110.272 196.934 110.389C197.432 110.505 197.83 110.671 198.137 110.879L198.138 110.88C198.337 111.014 198.495 111.169 198.611 111.335L198.612 111.336C198.76 111.546 198.838 111.794 198.838 112.059C198.838 112.274 198.785 112.513 198.672 112.771C198.555 113.029 198.379 113.299 198.136 113.584C197.696 114.096 197.174 114.47 196.622 114.711L196.322 114.843V120.882L197.161 120.108C197.477 119.817 197.938 119.718 198.358 119.885V119.887C198.945 120.125 199.228 120.792 198.991 121.375L198.99 121.377C198.59 122.372 197.756 122.945 196.895 123.257L196.884 123.262L196.721 123.323C195.179 123.833 193.886 123.412 193.664 123.33C193.645 123.322 193.623 123.314 193.6 123.307H193.601C192.733 123.014 191.857 122.452 191.381 121.436V121.435C191.112 120.862 191.358 120.183 191.931 119.916C192.361 119.715 192.859 119.806 193.188 120.111L194.028 120.889V114.873Z" fill="#066AFE" stroke="#066AFE"/>
<path d="M195.179 156.485C220.331 156.485 240.721 136.095 240.721 110.943C240.721 85.7907 220.331 65.4009 195.179 65.4009C170.027 65.4009 149.637 85.7907 149.637 110.943C149.637 136.095 170.027 156.485 195.179 156.485Z" stroke="#4992FE" stroke-width="4.63" stroke-linecap="round" stroke-linejoin="round"/>
<g opacity="0.4">
<path d="M104.599 21.4561L91.5718 8.43604" stroke="#022AC0" stroke-width="5" stroke-linecap="round" stroke-linejoin="round"/>
<path d="M87.2855 4.14686L85.6387 2.5" stroke="#022AC0" stroke-width="5" stroke-linecap="round" stroke-linejoin="round"/>
<path d="M118.111 34.853L109.701 26.4463" stroke="#022AC0" stroke-width="5" stroke-linecap="round" stroke-linejoin="round"/>
</g>
<g opacity="0.4">
<path d="M298.635 101.913L316.979 100.263" stroke="#022AC0" stroke-width="5" stroke-linecap="round" stroke-linejoin="round"/>
<path d="M323.018 99.7242L325.341 99.5166" stroke="#022AC0" stroke-width="5" stroke-linecap="round" stroke-linejoin="round"/>
<path d="M279.686 103.697L291.527 102.635" stroke="#022AC0" stroke-width="5" stroke-linecap="round" stroke-linejoin="round"/>
</g>
<g opacity="0.4">
<path d="M355.36 49.7484L372.395 42.7422" stroke="#022AC0" stroke-width="5" stroke-linecap="round" stroke-linejoin="round"/>
<path d="M378.005 40.4444L380.162 39.5576" stroke="#022AC0" stroke-width="5" stroke-linecap="round" stroke-linejoin="round"/>
<path d="M337.791 57.0574L348.787 52.5391" stroke="#022AC0" stroke-width="5" stroke-linecap="round" stroke-linejoin="round"/>
</g>
<g opacity="0.4">
<path d="M20.0742 177.011L37.1093 170.004" stroke="#022AC0" stroke-width="5" stroke-linecap="round" stroke-linejoin="round"/>
<path d="M42.7148 167.707L44.8719 166.82" stroke="#022AC0" stroke-width="5" stroke-linecap="round" stroke-linejoin="round"/>
<path d="M2.50049 184.32L13.4971 179.801" stroke="#022AC0" stroke-width="5" stroke-linecap="round" stroke-linejoin="round"/>
</g>
<g opacity="0.4">
<path d="M44.71 29.8242L54.102 34.9865" stroke="#022AC0" stroke-width="5" stroke-linecap="round" stroke-linejoin="round"/>
<path d="M59.4121 37.9106L61.4531 39.0332" stroke="#022AC0" stroke-width="5" stroke-linecap="round" stroke-linejoin="round"/>
</g>
<g opacity="0.4">
<path d="M258.312 26.9528L269.619 12.4126" stroke="#022AC0" stroke-width="5" stroke-linecap="round" stroke-linejoin="round"/>
<path d="M273.345 7.63044L274.777 5.79004" stroke="#022AC0" stroke-width="5" stroke-linecap="round" stroke-linejoin="round"/>
<path d="M246.689 42.0207L253.991 32.6357" stroke="#022AC0" stroke-width="5" stroke-linecap="round" stroke-linejoin="round"/>
</g>
<g opacity="0.4">
<path d="M125.877 203.547L137.184 189.006" stroke="#022AC0" stroke-width="5" stroke-linecap="round" stroke-linejoin="round"/>
<path d="M140.91 184.228L142.342 182.387" stroke="#022AC0" stroke-width="5" stroke-linecap="round" stroke-linejoin="round"/>
<path d="M114.254 218.618L121.556 209.233" stroke="#022AC0" stroke-width="5" stroke-linecap="round" stroke-linejoin="round"/>
</g>
<g opacity="0.5">
<path d="M246.46 201.375L255.687 217.316" stroke="#022AC0" stroke-width="5" stroke-linecap="round" stroke-linejoin="round"/>
<path d="M258.717 222.566L259.885 224.582" stroke="#022AC0" stroke-width="5" stroke-linecap="round" stroke-linejoin="round"/>
<path d="M236.861 184.942L242.815 195.235" stroke="#022AC0" stroke-width="5" stroke-linecap="round" stroke-linejoin="round"/>
</g>
<path d="M191.773 164.649L190.07 188.571" stroke="#4992FE" stroke-width="5" stroke-linecap="round" stroke-linejoin="round"/>
<path d="M176.803 161.524L168.435 183.999" stroke="#4992FE" stroke-width="5" stroke-linecap="round" stroke-linejoin="round"/>
<path d="M163.312 154.313L148.961 173.523" stroke="#4992FE" stroke-width="5" stroke-linecap="round" stroke-linejoin="round"/>
<path d="M152.399 143.599L133.221 157.995" stroke="#4992FE" stroke-width="5" stroke-linecap="round" stroke-linejoin="round"/>
<path d="M144.943 130.244L122.489 138.661" stroke="#4992FE" stroke-width="5" stroke-linecap="round" stroke-linejoin="round"/>
<path d="M141.544 115.331L117.625 117.091" stroke="#4992FE" stroke-width="5" stroke-linecap="round" stroke-linejoin="round"/>
<path d="M142.476 100.066L119.033 95.0269" stroke="#4992FE" stroke-width="5" stroke-linecap="round" stroke-linejoin="round"/>
<path d="M147.67 85.6771L126.588 74.2441" stroke="#4992FE" stroke-width="5" stroke-linecap="round" stroke-linejoin="round"/>
<path d="M156.7 73.3325L139.689 56.4312" stroke="#4992FE" stroke-width="5" stroke-linecap="round" stroke-linejoin="round"/>
<path d="M168.84 64.0284L157.273 43.0239" stroke="#4992FE" stroke-width="5" stroke-linecap="round" stroke-linejoin="round"/>
<path d="M183.106 58.5179L177.916 35.103" stroke="#4992FE" stroke-width="5" stroke-linecap="round" stroke-linejoin="round"/>
<path d="M198.35 57.2406L199.958 33.3154" stroke="#4992FE" stroke-width="5" stroke-linecap="round" stroke-linejoin="round"/>
<path d="M213.333 60.3059L221.61 37.7988" stroke="#4992FE" stroke-width="5" stroke-linecap="round" stroke-linejoin="round"/>
<path d="M226.85 67.463L241.126 48.1934" stroke="#4992FE" stroke-width="5" stroke-linecap="round" stroke-linejoin="round"/>
<path d="M237.808 78.1325L256.926 63.6592" stroke="#4992FE" stroke-width="5" stroke-linecap="round" stroke-linejoin="round"/>
<path d="M245.32 91.4586L267.739 82.9463" stroke="#4992FE" stroke-width="5" stroke-linecap="round" stroke-linejoin="round"/>
<path d="M248.779 106.354L272.687 104.5" stroke="#4992FE" stroke-width="5" stroke-linecap="round" stroke-linejoin="round"/>
<path d="M247.907 121.626L271.371 126.571" stroke="#4992FE" stroke-width="5" stroke-linecap="round" stroke-linejoin="round"/>
<path d="M242.772 136.033L263.897 147.381" stroke="#4992FE" stroke-width="5" stroke-linecap="round" stroke-linejoin="round"/>
<path d="M233.789 148.416L250.869 165.247" stroke="#4992FE" stroke-width="5" stroke-linecap="round" stroke-linejoin="round"/>
<path d="M221.687 157.77L233.342 178.728" stroke="#4992FE" stroke-width="5" stroke-linecap="round" stroke-linejoin="round"/>
<path d="M207.442 163.34L212.728 186.73" stroke="#4992FE" stroke-width="5" stroke-linecap="round" stroke-linejoin="round"/>
<g opacity="0.3">
<path d="M104.599 21.4561L91.5718 8.43604" stroke="#4992FE" stroke-width="5" stroke-linecap="round" stroke-linejoin="round"/>
<path d="M87.2855 4.14686L85.6387 2.5" stroke="#4992FE" stroke-width="5" stroke-linecap="round" stroke-linejoin="round"/>
<path d="M118.111 34.853L109.701 26.4463" stroke="#4992FE" stroke-width="5" stroke-linecap="round" stroke-linejoin="round"/>
</g>
<g opacity="0.3">
<path d="M105.668 118.037L87.2925 119.289" stroke="#4992FE" stroke-width="5" stroke-linecap="round" stroke-linejoin="round"/>
<path d="M81.2435 119.69L78.9175 119.849" stroke="#4992FE" stroke-width="5" stroke-linecap="round" stroke-linejoin="round"/>
</g>
<g opacity="0.3">
<path d="M298.635 101.913L316.979 100.263" stroke="#4992FE" stroke-width="5" stroke-linecap="round" stroke-linejoin="round"/>
<path d="M323.018 99.7242L325.341 99.5166" stroke="#4992FE" stroke-width="5" stroke-linecap="round" stroke-linejoin="round"/>
<path d="M279.686 103.697L291.527 102.635" stroke="#4992FE" stroke-width="5" stroke-linecap="round" stroke-linejoin="round"/>
</g>
<g opacity="0.3">
<path d="M258.312 26.9528L269.619 12.4126" stroke="#4992FE" stroke-width="5" stroke-linecap="round" stroke-linejoin="round"/>
<path d="M273.345 7.63044L274.777 5.79004" stroke="#4992FE" stroke-width="5" stroke-linecap="round" stroke-linejoin="round"/>
<path d="M246.689 42.0207L253.991 32.6357" stroke="#4992FE" stroke-width="5" stroke-linecap="round" stroke-linejoin="round"/>
</g>
<g opacity="0.3">
<path d="M125.877 203.547L137.184 189.006" stroke="#4992FE" stroke-width="5" stroke-linecap="round" stroke-linejoin="round"/>
<path d="M140.91 184.228L142.342 182.387" stroke="#4992FE" stroke-width="5" stroke-linecap="round" stroke-linejoin="round"/>
<path d="M114.254 218.618L121.556 209.233" stroke="#4992FE" stroke-width="5" stroke-linecap="round" stroke-linejoin="round"/>
</g>
<g opacity="0.3">
<path d="M246.46 201.375L255.687 217.316" stroke="#4992FE" stroke-width="5" stroke-linecap="round" stroke-linejoin="round"/>
<path d="M258.717 222.566L259.885 224.582" stroke="#4992FE" stroke-width="5" stroke-linecap="round" stroke-linejoin="round"/>
<path d="M236.861 184.942L242.815 195.235" stroke="#4992FE" stroke-width="5" stroke-linecap="round" stroke-linejoin="round"/>
</g>
<path d="M185.857 155.566L181.55 175.416" stroke="#4992FE" stroke-width="4.63" stroke-linecap="round" stroke-linejoin="round"/>
<path d="M173.682 151.143L163.959 168.976" stroke="#4992FE" stroke-width="4.63" stroke-linecap="round" stroke-linejoin="round"/>
<path d="M163.242 143.471L148.895 157.85" stroke="#4992FE" stroke-width="4.63" stroke-linecap="round" stroke-linejoin="round"/>
<path d="M155.38 133.171L137.567 142.936" stroke="#4992FE" stroke-width="4.63" stroke-linecap="round" stroke-linejoin="round"/>
<path d="M150.735 121.077L130.896 125.434" stroke="#4992FE" stroke-width="4.63" stroke-linecap="round" stroke-linejoin="round"/>
<path d="M149.68 108.166L129.414 106.762" stroke="#4992FE" stroke-width="4.63" stroke-linecap="round" stroke-linejoin="round"/>
<path d="M152.301 95.4766L133.25 88.4282" stroke="#4992FE" stroke-width="4.63" stroke-linecap="round" stroke-linejoin="round"/>
<path d="M158.385 84.0403L142.089 71.9141" stroke="#4992FE" stroke-width="4.63" stroke-linecap="round" stroke-linejoin="round"/>
<path d="M167.447 74.7749L155.218 58.5562" stroke="#4992FE" stroke-width="4.63" stroke-linecap="round" stroke-linejoin="round"/>
<path d="M178.742 68.4373L171.574 49.4316" stroke="#4992FE" stroke-width="4.63" stroke-linecap="round" stroke-linejoin="round"/>
<path d="M191.368 65.5308L189.837 45.2759" stroke="#4992FE" stroke-width="4.63" stroke-linecap="round" stroke-linejoin="round"/>
<path d="M204.304 66.298L208.53 46.4302" stroke="#4992FE" stroke-width="4.63" stroke-linecap="round" stroke-linejoin="round"/>
<path d="M216.497 70.672L226.145 52.7959" stroke="#4992FE" stroke-width="4.63" stroke-linecap="round" stroke-linejoin="round"/>
<path d="M226.969 78.3009L241.26 63.8628" stroke="#4992FE" stroke-width="4.63" stroke-linecap="round" stroke-linejoin="round"/>
<path d="M234.873 88.5654L252.647 78.73" stroke="#4992FE" stroke-width="4.63" stroke-linecap="round" stroke-linejoin="round"/>
<path d="M239.567 100.642L259.389 96.2051" stroke="#4992FE" stroke-width="4.63" stroke-linecap="round" stroke-linejoin="round"/>
<path d="M240.672 113.55L260.944 114.873" stroke="#4992FE" stroke-width="4.63" stroke-linecap="round" stroke-linejoin="round"/>
<path d="M238.103 126.25L257.183 133.22" stroke="#4992FE" stroke-width="4.63" stroke-linecap="round" stroke-linejoin="round"/>
<path d="M232.064 137.711L248.41 149.77" stroke="#4992FE" stroke-width="4.63" stroke-linecap="round" stroke-linejoin="round"/>
<path d="M223.042 147.011L235.337 163.181" stroke="#4992FE" stroke-width="4.63" stroke-linecap="round" stroke-linejoin="round"/>
<path d="M211.771 153.395L219.016 172.372" stroke="#4992FE" stroke-width="4.63" stroke-linecap="round" stroke-linejoin="round"/>
<path d="M199.156 156.351L200.771 176.598" stroke="#4992FE" stroke-width="4.63" stroke-linecap="round" stroke-linejoin="round"/>
<path d="M290.739 61.963L290.141 63.5852C290.099 63.7013 290.004 63.7963 289.887 63.8385L288.265 64.4368C287.899 64.574 287.899 65.0913 288.265 65.2355L289.887 65.8338C290.004 65.876 290.099 65.971 290.141 66.0871L290.739 67.7094C290.876 68.0753 291.394 68.0753 291.538 67.7094L292.136 66.0871C292.178 65.971 292.273 65.876 292.389 65.8338L294.012 65.2355C294.378 65.0983 294.378 64.581 294.012 64.4368L292.389 63.8385C292.273 63.7963 292.178 63.7013 292.136 63.5852L291.538 61.963C291.401 61.597 290.883 61.597 290.739 61.963Z" fill="#022AC0"/>
<path d="M252.344 179.171L251.746 180.794C251.704 180.91 251.609 181.005 251.492 181.047L249.87 181.645C249.504 181.782 249.504 182.3 249.87 182.444L251.492 183.042C251.609 183.085 251.704 183.18 251.746 183.296L252.344 184.918C252.481 185.284 252.999 185.284 253.143 184.918L253.741 183.296C253.783 183.18 253.878 183.085 253.994 183.042L255.617 182.444C255.983 182.307 255.983 181.79 255.617 181.645L253.994 181.047C253.878 181.005 253.783 180.91 253.741 180.794L253.143 179.171C253.006 178.805 252.488 178.805 252.344 179.171Z" fill="#022AC0"/>
<path d="M203.822 213.449L203.224 215.071C203.182 215.188 203.087 215.283 202.97 215.325L201.348 215.923C200.982 216.06 200.982 216.578 201.348 216.722L202.97 217.32C203.087 217.362 203.182 217.457 203.224 217.573L203.822 219.196C203.959 219.562 204.477 219.562 204.621 219.196L205.219 217.573C205.261 217.457 205.356 217.362 205.472 217.32L207.095 216.722C207.461 216.585 207.461 216.067 207.095 215.923L205.472 215.325C205.356 215.283 205.261 215.188 205.219 215.071L204.621 213.449C204.484 213.083 203.966 213.083 203.822 213.449Z" fill="#022AC0"/>
<path d="M300.11 133.738L299.512 135.361C299.47 135.477 299.375 135.572 299.259 135.614L297.636 136.212C297.27 136.349 297.27 136.867 297.636 137.011L299.259 137.609C299.375 137.651 299.47 137.746 299.512 137.863L300.11 139.485C300.247 139.851 300.765 139.851 300.909 139.485L301.507 137.863C301.549 137.746 301.644 137.651 301.76 137.609L303.383 137.011C303.749 136.874 303.749 136.356 303.383 136.212L301.76 135.614C301.644 135.572 301.549 135.477 301.507 135.361L300.909 133.738C300.772 133.372 300.254 133.372 300.11 133.738Z" fill="#4992FE"/>
<path d="M327.178 180.396L326.58 182.018C326.538 182.134 326.443 182.229 326.326 182.272L324.704 182.87C324.338 183.007 324.338 183.524 324.704 183.669L326.326 184.267C326.443 184.309 326.538 184.404 326.58 184.52L327.178 186.142C327.315 186.508 327.832 186.508 327.977 186.142L328.575 184.52C328.617 184.404 328.712 184.309 328.828 184.267L330.451 183.669C330.817 183.531 330.817 183.014 330.451 182.87L328.828 182.272C328.712 182.229 328.617 182.134 328.575 182.018L327.977 180.396C327.84 180.03 327.322 180.03 327.178 180.396Z" fill="#4992FE"/>
<path d="M99.134 216.482L98.5358 218.105C98.4936 218.221 98.3986 218.316 98.2824 218.358L96.6602 218.956C96.2943 219.094 96.2943 219.611 96.6602 219.755L98.2824 220.353C98.3986 220.396 98.4936 220.491 98.5358 220.607L99.134 222.229C99.2713 222.595 99.7885 222.595 99.9328 222.229L100.531 220.607C100.573 220.491 100.668 220.396 100.784 220.353L102.407 219.755C102.773 219.618 102.773 219.101 102.407 218.956L100.784 218.358C100.668 218.316 100.573 218.221 100.531 218.105L99.9328 216.482C99.7956 216.117 99.2783 216.117 99.134 216.482Z" fill="#4992FE"/>
<path d="M218.928 19.2852L218.33 20.9074C218.288 21.0236 218.193 21.1186 218.077 21.1608L216.455 21.759C216.089 21.8963 216.089 22.4135 216.455 22.5578L218.077 23.156C218.193 23.1983 218.288 23.2933 218.33 23.4094L218.928 25.0316C219.066 25.3976 219.583 25.3976 219.727 25.0316L220.325 23.4094C220.368 23.2933 220.463 23.1983 220.579 23.156L222.201 22.5578C222.567 22.4206 222.567 21.9033 222.201 21.759L220.579 21.1608C220.463 21.1186 220.368 21.0236 220.325 20.9074L219.727 19.2852C219.59 18.9193 219.073 18.9193 218.928 19.2852Z" fill="#4992FE"/>
<path d="M90.1252 20.4786L89.527 22.1008C89.4848 22.2169 89.3898 22.3119 89.2737 22.3542L87.6514 22.9524C87.2855 23.0896 87.2855 23.6069 87.6514 23.7512L89.2737 24.3494C89.3898 24.3916 89.4848 24.4866 89.527 24.6028L90.1252 26.225C90.2625 26.5909 90.7798 26.5909 90.924 26.225L91.5222 24.6028C91.5645 24.4866 91.6595 24.3916 91.7756 24.3494L93.3978 23.7512C93.7638 23.6139 93.7638 23.0967 93.3978 22.9524L91.7756 22.3542C91.6595 22.3119 91.5645 22.2169 91.5222 22.1008L90.924 20.4786C90.7868 20.1126 90.2695 20.1126 90.1252 20.4786Z" fill="#4992FE"/>
<path d="M66.6755 102.902L66.0773 104.525C66.0351 104.641 65.9401 104.736 65.8239 104.778L64.2017 105.376C63.8358 105.513 63.8358 106.031 64.2017 106.175L65.8239 106.773C65.9401 106.815 66.0351 106.91 66.0773 107.027L66.6755 108.649C66.8128 109.015 67.33 109.015 67.4743 108.649L68.0725 107.027C68.1148 106.91 68.2098 106.815 68.3259 106.773L69.9481 106.175C70.3141 106.038 70.3141 105.52 69.9481 105.376L68.3259 104.778C68.2098 104.736 68.1148 104.641 68.0725 104.525L67.4743 102.902C67.3371 102.536 66.8198 102.536 66.6755 102.902Z" fill="#4992FE"/>
<path d="M268.14 54.6226C269.404 54.6226 270.431 55.6466 270.431 56.9099C270.431 58.1732 269.407 59.2007 268.14 59.2007C266.874 59.2007 265.85 58.1767 265.85 56.9099C265.85 55.643 266.874 54.6226 268.14 54.6226Z" fill="#4992FE"/>
<path d="M273.067 169.558C274.33 169.558 275.358 170.582 275.358 171.845C275.358 173.108 274.334 174.136 273.067 174.136C271.8 174.136 270.776 173.112 270.776 171.845C270.776 170.578 271.8 169.558 273.067 169.558Z" fill="#4992FE"/>
<path d="M195.563 198.937C196.826 198.937 197.854 199.961 197.854 201.224C197.854 202.488 196.83 203.515 195.563 203.515C194.296 203.515 193.272 202.491 193.272 201.224C193.272 199.957 194.296 198.937 195.563 198.937Z" fill="#4992FE"/>
<path d="M89.3795 147.684C90.0129 147.684 90.5231 148.198 90.5231 148.828C90.5231 149.458 90.0094 149.971 89.3795 149.971C88.7496 149.971 88.2358 149.458 88.2358 148.828C88.2358 148.198 88.7496 147.684 89.3795 147.684Z" fill="#4992FE"/>
<path d="M235.911 197.793C236.544 197.793 237.054 198.307 237.054 198.937C237.054 199.567 236.541 200.081 235.911 200.081C235.281 200.081 234.767 199.567 234.767 198.937C234.767 198.307 235.281 197.793 235.911 197.793Z" fill="#4992FE"/>
<path d="M185.858 224.403C186.491 224.403 187.001 224.917 187.001 225.547C187.001 226.177 186.487 226.691 185.858 226.691C185.228 226.691 184.714 226.177 184.714 225.547C184.714 224.917 185.228 224.403 185.858 224.403Z" fill="#4992FE"/>
<path d="M287.991 187.437C288.624 187.437 289.134 187.951 289.134 188.581C289.134 189.211 288.621 189.724 287.991 189.724C287.361 189.724 286.847 189.211 286.847 188.581C286.847 187.951 287.361 187.437 287.991 187.437Z" fill="#4992FE"/>
<path d="M216.18 206.798C216.814 206.798 217.324 207.312 217.324 207.942C217.324 208.572 216.81 209.086 216.18 209.086C215.55 209.086 215.037 208.572 215.037 207.942C215.037 207.312 215.55 206.798 216.18 206.798Z" fill="#4992FE"/>
<path d="M243.772 221.356C244.405 221.356 244.916 221.87 244.916 222.5C244.916 223.13 244.402 223.644 243.772 223.644C243.142 223.644 242.628 223.13 242.628 222.5C242.628 221.87 243.142 221.356 243.772 221.356Z" fill="#4992FE"/>
<path d="M133.046 182.124C133.679 182.124 134.189 182.637 134.189 183.267C134.189 183.897 133.675 184.411 133.046 184.411C132.416 184.411 131.902 183.897 131.902 183.267C131.902 182.637 132.416 182.124 133.046 182.124Z" fill="#4992FE"/>
<path d="M283.117 153.367C283.751 153.367 284.261 153.881 284.261 154.511C284.261 155.141 283.747 155.654 283.117 155.654C282.487 155.654 281.974 155.141 281.974 154.511C281.974 153.881 282.487 153.367 283.117 153.367Z" fill="#4992FE"/>
<path d="M104.599 124.677C105.232 124.677 105.742 125.191 105.742 125.821C105.742 126.451 105.229 126.965 104.599 126.965C103.969 126.965 103.455 126.451 103.455 125.821C103.455 125.191 103.969 124.677 104.599 124.677Z" fill="#4992FE"/>
<path d="M154.17 196.65C154.803 196.65 155.313 197.164 155.313 197.794C155.313 198.423 154.799 198.937 154.17 198.937C153.54 198.937 153.026 198.423 153.026 197.794C153.026 197.164 153.54 196.65 154.17 196.65Z" fill="#4992FE"/>
<path d="M150.239 218.323C150.873 218.323 151.383 218.837 151.383 219.466C151.383 220.096 150.869 220.61 150.239 220.61C149.609 220.61 149.096 220.096 149.096 219.466C149.096 218.837 149.609 218.323 150.239 218.323Z" fill="#4992FE"/>
<path d="M137.951 200.295C138.585 200.295 139.095 200.809 139.095 201.439C139.095 202.069 138.581 202.583 137.951 202.583C137.321 202.583 136.808 202.069 136.808 201.439C136.808 200.809 137.321 200.295 137.951 200.295Z" fill="#4992FE"/>
<path d="M92.0924 89.7061C92.7258 89.7061 93.236 90.2198 93.236 90.8497C93.236 91.4796 92.7223 91.9934 92.0924 91.9934C91.4625 91.9934 90.9487 91.4796 90.9487 90.8497C90.9487 90.2198 91.4625 89.7061 92.0924 89.7061Z" fill="#4992FE"/>
<path d="M41.3883 113.068C42.0217 113.068 42.5319 113.582 42.5319 114.212C42.5319 114.842 42.0182 115.356 41.3883 115.356C40.7584 115.356 40.2446 114.842 40.2446 114.212C40.2446 113.582 40.7584 113.068 41.3883 113.068Z" fill="#4992FE"/>
<path d="M128.027 45.6245C128.661 45.6245 129.171 46.1383 129.171 46.7682C129.171 47.398 128.657 47.9118 128.027 47.9118C127.398 47.9118 126.884 47.398 126.884 46.7682C126.884 46.1383 127.398 45.6245 128.027 45.6245Z" fill="#4992FE"/>
<path d="M125.878 16.1504C126.511 16.1504 127.021 16.6642 127.021 17.294C127.021 17.9239 126.507 18.4377 125.878 18.4377C125.248 18.4377 124.734 17.9239 124.734 17.294C124.734 16.6642 125.248 16.1504 125.878 16.1504Z" fill="#4992FE"/>
<path d="M160.42 19.3662C161.053 19.3662 161.563 19.88 161.563 20.5099C161.563 21.1397 161.049 21.6535 160.42 21.6535C159.79 21.6535 159.276 21.1397 159.276 20.5099C159.276 19.88 159.79 19.3662 160.42 19.3662Z" fill="#4992FE"/>
<path d="M173.682 8.41895C174.316 8.41895 174.826 8.93271 174.826 9.5626C174.826 10.1925 174.312 10.7062 173.682 10.7062C173.052 10.7062 172.539 10.1925 172.539 9.5626C172.539 8.93271 173.052 8.41895 173.682 8.41895Z" fill="#4992FE"/>
<path d="M284.261 80.4092C284.894 80.4092 285.404 80.9229 285.404 81.5528C285.404 82.1827 284.891 82.6965 284.261 82.6965C283.631 82.6965 283.117 82.1827 283.117 81.5528C283.117 80.9229 283.631 80.4092 284.261 80.4092Z" fill="#4992FE"/>
<path d="M314.003 39.3013C314.636 39.3013 315.147 39.815 315.147 40.4449C315.147 41.0748 314.633 41.5886 314.003 41.5886C313.373 41.5886 312.859 41.0748 312.859 40.4449C312.859 39.815 313.373 39.3013 314.003 39.3013Z" fill="#4992FE"/>
<path d="M300.743 110.756C301.377 110.756 301.887 111.27 301.887 111.9C301.887 112.53 301.373 113.044 300.743 113.044C300.113 113.044 299.6 112.53 299.6 111.9C299.6 111.27 300.113 110.756 300.743 110.756Z" fill="#4992FE"/>
<path d="M109.367 144.439C110 144.439 110.51 144.953 110.51 145.583C110.51 146.213 109.997 146.727 109.367 146.727C108.737 146.727 108.223 146.213 108.223 145.583C108.223 144.953 108.737 144.439 109.367 144.439Z" fill="#4992FE"/>
<path d="M285.408 123.53C286.041 123.53 286.551 124.044 286.551 124.674C286.551 125.304 286.038 125.818 285.408 125.818C284.778 125.818 284.264 125.304 284.264 124.674C284.264 124.044 284.778 123.53 285.408 123.53Z" fill="#4992FE"/>
<path d="M285.408 45.6245C286.041 45.6245 286.551 46.1383 286.551 46.7682C286.551 47.398 286.038 47.9118 285.408 47.9118C284.778 47.9118 284.264 47.398 284.264 46.7682C284.264 46.1383 284.778 45.6245 285.408 45.6245Z" fill="#4992FE"/>
<path d="M239.349 29.5078C239.982 29.5078 240.492 30.0216 240.492 30.6515C240.492 31.2813 239.979 31.7951 239.349 31.7951C238.719 31.7951 238.205 31.2813 238.205 30.6515C238.205 30.0216 238.719 29.5078 239.349 29.5078Z" fill="#4992FE"/>
<path d="M225.491 0.248047C226.125 0.248047 226.635 0.76181 226.635 1.3917C226.635 2.02158 226.121 2.53535 225.491 2.53535C224.861 2.53535 224.348 2.02158 224.348 1.3917C224.348 0.76181 224.861 0.248047 225.491 0.248047Z" fill="#4992FE"/>
<path d="M320.647 153.367C321.28 153.367 321.79 153.881 321.79 154.511C321.79 155.141 321.276 155.654 320.647 155.654C320.017 155.654 319.503 155.141 319.503 154.511C319.503 153.881 320.017 153.367 320.647 153.367Z" fill="#4992FE"/>
<path d="M98.3878 46.7681C99.0212 46.7681 99.5314 47.2818 99.5314 47.9117C99.5314 48.5416 99.0177 49.0554 98.3878 49.0554C97.7579 49.0554 97.2441 48.5416 97.2441 47.9117C97.2441 47.2818 97.7579 46.7681 98.3878 46.7681Z" fill="#4992FE"/>
<path d="M60.753 21.1011C61.3864 21.1011 61.8967 21.6148 61.8967 22.2447C61.8967 22.8746 61.3829 23.3884 60.753 23.3884C60.1231 23.3884 59.6094 22.8746 59.6094 22.2447C59.6094 21.6148 60.1231 21.1011 60.753 21.1011Z" fill="#4992FE"/>
<path d="M264.654 33.7871L263.746 36.2468C263.682 36.4228 263.538 36.5635 263.362 36.6304L260.902 37.5383C260.346 37.7459 260.346 38.5341 260.902 38.7488L263.362 39.6567C263.538 39.72 263.679 39.8643 263.746 40.0402L264.654 42.5C264.861 43.056 265.649 43.056 265.864 42.5L266.772 40.0402C266.835 39.8643 266.98 39.7235 267.155 39.6567L269.615 38.7488C270.171 38.5412 270.171 37.7529 269.615 37.5383L267.155 36.6304C266.98 36.5671 266.835 36.4228 266.772 36.2468L265.864 33.7871C265.656 33.2311 264.868 33.2311 264.654 33.7871Z" fill="#4992FE"/>
<path d="M77.9607 166.69L77.3625 168.312C77.3202 168.428 77.2252 168.523 77.1091 168.565L75.4869 169.163C75.1209 169.301 75.1209 169.818 75.4869 169.962L77.1091 170.56C77.2252 170.603 77.3202 170.698 77.3625 170.814L77.9607 172.436C78.0979 172.802 78.6152 172.802 78.7595 172.436L79.3577 170.814C79.3999 170.698 79.4949 170.603 79.6111 170.56L81.2333 169.962C81.5992 169.825 81.5992 169.308 81.2333 169.163L79.6111 168.565C79.4949 168.523 79.3999 168.428 79.3577 168.312L78.7595 166.69C78.6222 166.324 78.105 166.324 77.9607 166.69Z" fill="#022AC0"/>
<path d="M169.625 205.074L169.027 206.696C168.985 206.813 168.89 206.908 168.774 206.95L167.151 207.548C166.785 207.685 166.785 208.203 167.151 208.347L168.774 208.945C168.89 208.987 168.985 209.082 169.027 209.198L169.625 210.821C169.762 211.187 170.28 211.187 170.424 210.821L171.022 209.198C171.064 209.082 171.159 208.987 171.276 208.945L172.898 208.347C173.264 208.21 173.264 207.692 172.898 207.548L171.276 206.95C171.159 206.908 171.064 206.813 171.022 206.696L170.424 205.074C170.287 204.708 169.77 204.708 169.625 205.074Z" fill="#4992FE"/>
<path d="M92.0926 178.073C93.3559 178.073 94.3834 179.097 94.3834 180.361C94.3834 181.624 93.3594 182.651 92.0926 182.651C90.8258 182.651 89.8018 181.627 89.8018 180.361C89.8018 179.094 90.8258 178.073 92.0926 178.073Z" fill="#4992FE"/>
<path d="M106.115 160.063L105.208 162.523C105.144 162.699 105 162.84 104.824 162.907L102.364 163.815C101.808 164.022 101.808 164.811 102.364 165.025L104.824 165.933C105 165.996 105.141 166.141 105.208 166.317L106.115 168.776C106.323 169.332 107.111 169.332 107.326 168.776L108.234 166.317C108.297 166.141 108.441 166 108.617 165.933L111.077 165.025C111.633 164.818 111.633 164.029 111.077 163.815L108.617 162.907C108.441 162.843 108.297 162.699 108.234 162.523L107.326 160.063C107.118 159.507 106.33 159.507 106.115 160.063Z" fill="#4992FE"/>
<path d="M320.045 118.836L319.137 121.296C319.073 121.472 318.929 121.612 318.753 121.679L316.293 122.587C315.737 122.795 315.737 123.583 316.293 123.798L318.753 124.705C318.929 124.769 319.07 124.913 319.137 125.089L320.045 127.549C320.252 128.105 321.04 128.105 321.255 127.549L322.163 125.089C322.226 124.913 322.371 124.772 322.547 124.705L325.006 123.798C325.562 123.59 325.562 122.802 325.006 122.587L322.547 121.679C322.371 121.616 322.226 121.472 322.163 121.296L321.255 118.836C321.048 118.28 320.259 118.28 320.045 118.836Z" fill="#4992FE"/>
<path d="M266.265 185.115L265.357 187.574C265.294 187.75 265.149 187.891 264.973 187.958L262.514 188.866C261.958 189.074 261.958 189.862 262.514 190.076L264.973 190.984C265.149 191.048 265.29 191.192 265.357 191.368L266.265 193.828C266.472 194.384 267.261 194.384 267.475 193.828L268.383 191.368C268.447 191.192 268.591 191.051 268.767 190.984L271.227 190.076C271.782 189.869 271.782 189.081 271.227 188.866L268.767 187.958C268.591 187.895 268.447 187.75 268.383 187.574L267.475 185.115C267.268 184.559 266.479 184.559 266.265 185.115Z" fill="#4992FE"/>
<path d="M94.8406 69.8629L94.2423 71.4851C94.2001 71.6012 94.1051 71.6962 93.989 71.7384L92.3668 72.3367C92.0008 72.4739 92.0008 72.9912 92.3668 73.1355L93.989 73.7337C94.1051 73.7759 94.2001 73.8709 94.2423 73.987L94.8406 75.6093C94.9778 75.9752 95.4951 75.9752 95.6394 75.6093L96.2376 73.987C96.2798 73.8709 96.3748 73.7759 96.4909 73.7337L98.1132 73.1355C98.4791 72.9982 98.4791 72.4809 98.1132 72.3367L96.4909 71.7384C96.3748 71.6962 96.2798 71.6012 96.2376 71.4851L95.6394 69.8629C95.5021 69.4969 94.9848 69.4969 94.8406 69.8629Z" fill="#022AC0"/>
<path d="M200.387 9.13678L199.789 10.759C199.747 10.8751 199.652 10.9701 199.536 11.0124L197.914 11.6106C197.548 11.7478 197.548 12.2651 197.914 12.4094L199.536 13.0076C199.652 13.0498 199.747 13.1448 199.789 13.261L200.387 14.8832C200.525 15.2492 201.042 15.2492 201.186 14.8832L201.784 13.261C201.827 13.1448 201.922 13.0498 202.038 13.0076L203.66 12.4094C204.026 12.2721 204.026 11.7549 203.66 11.6106L202.038 11.0124C201.922 10.9701 201.827 10.8751 201.784 10.759L201.186 9.13678C201.049 8.77081 200.532 8.77081 200.387 9.13678Z" fill="#022AC0"/>
<path d="M111.658 60.2563C112.921 60.2563 113.948 61.2804 113.948 62.5436C113.948 63.8069 112.924 64.8345 111.658 64.8345C110.391 64.8345 109.367 63.8105 109.367 62.5436C109.367 61.2768 110.391 60.2563 111.658 60.2563Z" fill="#4992FE"/>
<path d="M180.143 19.9224C181.406 19.9224 182.434 20.9464 182.434 22.2097C182.434 23.473 181.41 24.5005 180.143 24.5005C178.876 24.5005 177.852 23.4765 177.852 22.2097C177.852 20.9429 178.876 19.9224 180.143 19.9224Z" fill="#4992FE"/>
<path d="M239.567 12.0225C240.83 12.0225 241.858 13.0465 241.858 14.3098C241.858 15.5731 240.834 16.6006 239.567 16.6006C238.3 16.6006 237.276 15.5766 237.276 14.3098C237.276 13.0429 238.3 12.0225 239.567 12.0225Z" fill="#4992FE"/>
<path d="M108.762 75.8101L107.854 78.2698C107.791 78.4457 107.646 78.5865 107.47 78.6533L105.011 79.5612C104.455 79.7688 104.455 80.5571 105.011 80.7717L107.47 81.6796C107.646 81.743 107.787 81.8872 107.854 82.0632L108.762 84.5229C108.97 85.0789 109.758 85.0789 109.972 84.5229L110.88 82.0632C110.944 81.8872 111.088 81.7465 111.264 81.6796L113.724 80.7717C114.28 80.5641 114.28 79.7759 113.724 79.5612L111.264 78.6533C111.088 78.59 110.944 78.4457 110.88 78.2698L109.972 75.8101C109.765 75.2541 108.977 75.2541 108.762 75.8101Z" fill="#4992FE"/>
<path d="M142.117 26.5239L141.209 28.9837C141.146 29.1596 141.002 29.3004 140.826 29.3672L138.366 30.2751C137.81 30.4827 137.81 31.271 138.366 31.4856L140.826 32.3935C141.002 32.4568 141.143 32.6011 141.209 32.7771L142.117 35.2368C142.325 35.7928 143.113 35.7928 143.328 35.2368L144.236 32.7771C144.299 32.6011 144.443 32.4604 144.619 32.3935L147.079 31.4856C147.635 31.278 147.635 30.4898 147.079 30.2751L144.619 29.3672C144.443 29.3039 144.299 29.1596 144.236 28.9837L143.328 26.5239C143.12 25.9679 142.332 25.9679 142.117 26.5239Z" fill="#4992FE"/>
<path d="M297.932 173.576C297.675 173.576 297.464 173.365 297.464 173.108C297.464 173.062 297.464 173.038 297.488 172.992L298.752 167.492H296.996C296.739 167.492 296.528 167.281 296.528 167.024C296.528 166.978 296.528 166.954 296.552 166.908L298.192 160.824C298.238 160.612 298.428 160.472 298.636 160.472H303.784C304.041 160.472 304.252 160.683 304.252 160.94C304.252 161.01 304.227 161.08 304.206 161.126L302.637 164.684H304.484C304.741 164.684 304.952 164.895 304.952 165.152C304.952 165.268 304.906 165.363 304.836 165.454L298.284 173.411C298.213 173.506 298.073 173.576 297.932 173.576ZM297.605 166.556H299.336C299.593 166.556 299.804 166.767 299.804 167.024C299.804 167.07 299.804 167.094 299.779 167.14L298.819 171.282L303.499 165.62H301.908C301.651 165.62 301.44 165.409 301.44 165.152C301.44 165.081 301.465 165.011 301.486 164.965L303.055 161.408H298.984L297.605 166.556Z" fill="#4992FE"/>
<path d="M299.336 165.62C299.079 165.62 298.868 165.409 298.868 165.152C298.868 165.106 298.868 165.057 298.893 165.036L299.597 162.46C299.667 162.203 299.924 162.062 300.181 162.133C300.438 162.203 300.578 162.46 300.508 162.717L299.804 165.293C299.734 165.479 299.547 165.62 299.336 165.62Z" fill="#4992FE"/>
<path d="M147.361 7.43375C147.195 7.24725 146.893 7.19798 146.706 7.36337C146.52 7.52876 146.47 7.83139 146.636 8.01789L147.994 9.65771C148.089 9.75272 148.205 9.8231 148.321 9.8231H148.346C148.462 9.8231 148.582 9.77735 148.673 9.70697L152.231 6.43086C152.417 6.26547 152.442 5.96284 152.255 5.77634C152.069 5.58983 151.787 5.5652 151.601 5.7517L148.42 8.70056L147.368 7.43727L147.361 7.43375Z" fill="#4992FE"/>
<path d="M154.24 3.66517C154.17 3.57016 152.202 1.65234 149.465 1.65234C146.727 1.65234 144.76 3.57016 144.69 3.66517C144.595 3.76018 144.549 3.8763 144.549 3.99243V10.7804C144.549 10.9458 144.619 11.0831 144.76 11.1781L149.208 14.2219H149.233C149.257 14.2466 149.278 14.2466 149.328 14.2677C149.344 14.2677 149.359 14.2759 149.373 14.2923C149.419 14.2923 149.444 14.3169 149.489 14.3169C149.535 14.3169 149.56 14.3169 149.606 14.2923C149.622 14.2923 149.637 14.2841 149.651 14.2677C149.676 14.2677 149.697 14.2431 149.746 14.2219H149.771L154.219 11.1781C154.335 11.0831 154.43 10.9423 154.43 10.7804V3.99243C154.384 3.8763 154.335 3.75666 154.243 3.66517H154.24ZM153.445 10.52L149.465 13.2578L145.485 10.52V4.20356C145.928 3.80592 147.498 2.58838 149.465 2.58838C151.432 2.58838 152.977 3.80592 153.445 4.20356V10.5236V10.52Z" fill="#4992FE"/>
<path d="M61.4565 135.016C57.8532 135.016 54.9043 137.964 54.9043 141.568C54.9043 145.171 57.8532 148.12 61.4565 148.12C65.0599 148.12 68.0088 145.171 68.0088 141.568C68.0088 137.964 65.0599 135.016 61.4565 135.016ZM61.4565 147.184C58.3669 147.184 55.8403 144.657 55.8403 141.568C55.8403 138.478 58.3669 135.952 61.4565 135.952C64.5461 135.952 67.0727 138.478 67.0727 141.568C67.0727 144.657 64.5461 147.184 61.4565 147.184Z" fill="#4992FE"/>
<path d="M64.2646 139.696H63.5608V138.992C63.5608 137.82 62.6248 136.884 61.453 136.884C60.2812 136.884 59.3451 137.82 59.3451 138.992V139.696H58.6414C58.3845 139.696 58.1733 139.907 58.1733 140.164V145.08C58.1733 145.337 58.3845 145.548 58.6414 145.548H64.2576C64.5144 145.548 64.7256 145.337 64.7256 145.08V140.164C64.7256 139.907 64.5144 139.696 64.2576 139.696H64.2646ZM63.7966 144.608H59.1164V140.628H63.7966V144.608ZM60.2847 138.992C60.2847 138.338 60.7985 137.82 61.4565 137.82C62.1145 137.82 62.6283 138.334 62.6283 138.992V139.696H60.2882V138.992H60.2847Z" fill="#4992FE"/>
<path d="M60.9887 143.44C60.9887 143.697 61.1998 143.908 61.4567 143.908C61.7136 143.908 61.9247 143.697 61.9247 143.44V142.55C62.0655 142.433 62.1605 142.247 62.1605 142.036C62.1605 141.638 61.8579 141.332 61.4567 141.332C61.0556 141.332 60.7529 141.635 60.7529 142.036C60.7529 142.247 60.8479 142.433 60.9887 142.55V143.44Z" fill="#4992FE"/>
<path d="M319.453 75.3632L318.517 74.6594C318.563 74.4025 318.588 74.1456 318.588 73.9098C318.588 73.653 318.563 73.3961 318.517 73.1603L319.453 72.4565C319.64 72.3158 319.689 72.0342 319.57 71.8231L318.236 69.7399C318.095 69.5288 317.838 69.4584 317.627 69.5745L316.596 70.1376C316.339 69.9722 316.082 69.8103 315.801 69.6942L315.706 68.5224C315.681 68.2866 315.495 68.1001 315.238 68.1001H312.757C312.521 68.1001 312.313 68.2866 312.289 68.5224L312.194 69.6942C311.912 69.8103 311.655 69.951 311.399 70.1376L310.368 69.5745C310.156 69.4584 309.875 69.5288 309.759 69.7399L308.425 71.8231C308.284 72.0342 308.33 72.2911 308.541 72.4565L309.477 73.1603C309.431 73.4172 309.407 73.6741 309.407 73.9098C309.407 74.1456 309.431 74.4236 309.477 74.6594L308.541 75.3632C308.355 75.5039 308.305 75.7854 308.425 75.9966L309.759 78.0798C309.9 78.2909 310.156 78.3613 310.368 78.2451L311.399 77.6821C311.655 77.8475 311.912 78.0094 312.194 78.1255L312.289 79.2973C312.313 79.5331 312.5 79.7196 312.757 79.7196H315.238C315.473 79.7196 315.681 79.5331 315.706 79.2973L315.801 78.1255C316.082 78.0094 316.339 77.8686 316.596 77.6821L317.627 78.2451C317.838 78.3613 318.12 78.2909 318.236 78.0798L319.57 75.9966C319.71 75.7854 319.665 75.5039 319.453 75.3632ZM316.786 76.6968C316.621 76.6018 316.413 76.6264 316.272 76.7426C315.945 76.9995 315.593 77.186 315.195 77.3267C315.009 77.3971 314.893 77.5378 314.893 77.7243L314.822 78.7554H313.207L313.137 77.7243C313.112 77.5378 312.996 77.3725 312.834 77.3267C312.437 77.186 312.085 76.9995 311.758 76.7426C311.617 76.6264 311.406 76.6018 311.244 76.6968L310.332 77.1895L309.467 75.8312L310.287 75.1978C310.427 75.0816 310.498 74.8951 310.452 74.7051C310.382 74.4236 310.357 74.121 310.357 73.8641C310.357 73.5826 310.382 73.3011 310.452 73.0231C310.498 72.8366 310.427 72.6501 310.287 72.5304L309.467 71.897L310.332 70.5387L311.244 71.0314C311.409 71.1264 311.617 71.1017 311.758 70.9856C312.085 70.7287 312.437 70.5422 312.834 70.4015C313.021 70.3311 313.137 70.1903 313.137 70.0038L313.207 68.9728H314.822L314.893 70.0038C314.917 70.1903 315.034 70.3557 315.195 70.4015C315.593 70.5422 315.945 70.7287 316.272 70.9856C316.413 71.1017 316.624 71.1264 316.786 71.0314L317.697 70.5387L318.563 71.897L317.743 72.5304C317.602 72.6465 317.532 72.833 317.578 73.0231C317.648 73.3046 317.673 73.6072 317.673 73.8641C317.673 74.1456 317.648 74.4271 317.578 74.7051C317.532 74.8916 317.602 75.0781 317.743 75.1978L318.563 75.8312L317.697 77.1895L316.786 76.6968Z" fill="#4992FE"/>
<path d="M315.664 72.2032C315.593 72.1574 315.498 72.1328 315.407 72.1328C315.242 72.1328 315.104 72.2032 315.009 72.344L314.541 73.0935V73.1181L314.239 73.5861L313.911 74.0999L313.676 74.4729L313.042 73.9802L312.901 73.8641C312.806 73.7937 312.715 73.7691 312.62 73.7691C312.479 73.7691 312.338 73.8395 312.247 73.9556C312.082 74.1668 312.106 74.4483 312.317 74.6101L313.489 75.5462C313.584 75.6165 313.676 75.6412 313.771 75.6412H313.841C313.887 75.6412 313.957 75.6165 314.006 75.5708C314.077 75.5251 314.123 75.4758 314.172 75.43L314.474 74.9374L314.897 74.2829L315.808 72.8331C315.949 72.6219 315.878 72.3404 315.667 72.1997L315.664 72.2032Z" fill="#4992FE"/>
<path d="M118.882 191.062C118.724 190.274 118.305 189.457 117.724 188.905C117.147 188.328 116.356 187.905 115.567 187.747C115.303 187.694 115.043 187.67 114.779 187.694C114.674 187.694 114.596 187.694 114.491 187.719C113.833 187.796 113.255 188.06 112.809 188.535L111.837 189.506L110.497 190.822C110.314 191.005 110.208 191.217 110.127 191.428C109.839 191.558 109.575 191.744 109.364 191.98L106.654 194.662C105.971 195.344 105.683 196.372 105.89 197.424C106.049 198.212 106.467 199.029 107.048 199.581C107.784 200.317 108.864 200.792 109.916 200.792C110.68 200.792 111.415 200.556 111.992 199.975L112.963 199.004L114.304 197.663C114.487 197.48 114.593 197.269 114.674 197.058C114.937 196.928 115.198 196.741 115.437 196.506L118.147 193.796C118.805 193.138 119.093 192.114 118.882 191.062ZM110.68 196.319C110.757 196.396 110.838 196.477 110.944 196.555L109.839 197.66C109.708 197.635 109.444 197.554 109.261 197.371C109.103 197.213 108.998 196.949 108.973 196.819L110.261 195.531C110.314 195.819 110.472 196.108 110.683 196.319H110.68ZM114.519 192.955C114.466 192.666 114.308 192.378 114.096 192.167C114.019 192.089 113.938 192.008 113.833 191.931L114.937 190.826C115.068 190.851 115.332 190.932 115.515 191.115C115.673 191.273 115.779 191.537 115.803 191.667L114.515 192.955H114.519ZM112.281 198.188L111.229 199.24C110.859 199.609 110.388 199.764 109.888 199.764C109.782 199.764 109.652 199.764 109.547 199.739C108.917 199.662 108.259 199.317 107.784 198.846C107.361 198.423 107.048 197.822 106.914 197.216C106.784 196.481 106.939 195.848 107.389 195.401L110.099 192.691C110.124 192.666 110.176 192.638 110.205 192.585C110.627 192.216 111.204 192.061 111.834 192.139C112.281 192.191 112.728 192.374 113.069 192.638C113.175 192.716 113.252 192.768 113.333 192.849L113.516 193.032C113.727 193.244 113.727 193.557 113.516 193.768C113.305 193.979 112.992 193.979 112.78 193.768L112.597 193.585C112.492 193.479 112.362 193.402 112.203 193.321C112.045 193.244 111.862 193.191 111.679 193.163C111.468 193.138 111.179 193.138 110.944 193.293C110.891 193.317 110.866 193.346 110.813 193.398L108.132 196.161C107.896 196.396 107.896 196.766 107.949 197.03C108.026 197.424 108.237 197.818 108.526 198.107C108.737 198.318 109.026 198.476 109.314 198.582C109.761 198.74 110.236 198.74 110.497 198.476L111.549 197.424L111.89 197.083C112.231 197.213 112.573 197.318 112.942 197.347H113.125L112.284 198.188H112.281ZM117.383 193.085L114.674 195.767C114.649 195.791 114.596 195.819 114.568 195.872C114.199 196.189 113.727 196.347 113.252 196.347C112.699 196.347 112.122 196.136 111.675 195.823C111.57 195.745 111.492 195.693 111.412 195.612L111.229 195.429C111.017 195.218 111.017 194.904 111.229 194.693C111.44 194.482 111.753 194.482 111.964 194.693L112.147 194.876C112.253 194.982 112.383 195.059 112.541 195.14C112.935 195.323 113.435 195.404 113.804 195.165C113.857 195.14 113.882 195.112 113.935 195.059L116.644 192.35C116.88 192.114 116.88 191.744 116.827 191.481C116.75 191.086 116.539 190.692 116.25 190.404C115.962 190.115 115.567 189.904 115.173 189.827C114.909 189.774 114.543 189.774 114.304 190.01L112.911 191.403C112.622 191.273 112.305 191.192 111.989 191.167H111.858C111.806 191.167 111.728 191.167 111.675 191.143L112.017 190.801L113.569 189.25C114.016 188.803 114.674 188.644 115.384 188.774C115.99 188.88 116.567 189.197 117.014 189.644C117.436 190.066 117.749 190.668 117.883 191.273C117.988 191.984 117.83 192.642 117.383 193.089V193.085Z" fill="#4992FE"/>
<path d="M290.789 16.3613H280.024C279.767 16.3613 279.556 16.5725 279.556 16.8293V27.5937C279.556 27.8506 279.767 28.0617 280.024 28.0617H290.789C291.045 28.0617 291.257 27.8506 291.257 27.5937V16.8293C291.257 16.5725 291.045 16.3613 290.789 16.3613ZM290.321 27.1257H280.492V17.2974H290.321V27.1257Z" fill="#4992FE"/>
<path d="M286.344 23.7301C286.087 23.7301 285.876 23.9412 285.876 24.1981V24.3142H284.145C283.958 23.7758 283.441 23.3782 282.836 23.3782C282.065 23.3782 281.432 24.0116 281.432 24.7822C281.432 25.5529 282.065 26.1863 282.836 26.1863C283.444 26.1863 283.958 25.7887 284.145 25.2503H285.876V25.3664C285.876 25.6233 286.087 25.8344 286.344 25.8344C286.601 25.8344 286.812 25.6233 286.812 25.3664V25.2503H288.92C289.177 25.2503 289.388 25.0391 289.388 24.7822V20.1021C289.388 19.8452 289.177 19.6341 288.92 19.6341H287.868L286.675 18.4411C286.488 18.2546 286.182 18.2546 286.02 18.4411L284.827 19.6341H283.026L282.23 18.8388C282.044 18.6523 281.762 18.6523 281.576 18.8388C281.389 19.0253 281.389 19.3068 281.576 19.4933L282.139 20.0563V20.1513L281.576 20.7144C281.389 20.9009 281.389 21.1824 281.576 21.3689C281.671 21.4639 281.787 21.5096 281.903 21.5096C282.019 21.5096 282.139 21.4639 282.23 21.3689L283.026 20.5736H284.827L286.02 21.7665C286.115 21.8615 286.231 21.9073 286.348 21.9073C286.464 21.9073 286.583 21.8615 286.675 21.7665L287.868 20.5736H288.452V24.3177H286.812V24.2016C286.812 23.9447 286.601 23.7336 286.344 23.7336V23.7301ZM282.364 24.7858C282.364 24.5289 282.575 24.3177 282.832 24.3177C283.089 24.3177 283.3 24.5289 283.3 24.7858C283.3 25.0426 283.089 25.2538 282.832 25.2538C282.575 25.2538 282.364 25.0426 282.364 24.7858ZM286.344 19.4476L286.999 20.1021L286.344 20.7566L285.69 20.1021L286.344 19.4476Z" fill="#4992FE"/>
<path opacity="0.3" d="M347.524 208.515C343.02 208.515 339.064 210.852 336.791 214.374C334.979 213.03 332.73 212.231 330.299 212.231C328.293 212.231 326.417 212.773 324.806 213.716C321.776 209.219 316.635 206.26 310.804 206.26C305.307 206.26 300.423 208.888 297.344 212.96C296.126 212.488 294.8 212.228 293.417 212.228C289.191 212.228 285.527 214.631 283.715 218.15C283.261 219.033 283.916 220.086 284.912 220.086H358.679C359.534 220.086 360.171 219.29 359.981 218.453C358.696 212.763 353.612 208.512 347.531 208.512H347.52L347.524 208.515Z" fill="#4992FE"/>
<path opacity="0.3" d="M33.738 202.671H74.466C75.9158 202.671 76.8554 201.126 76.1727 199.852C74.7264 197.157 71.8831 195.323 68.6105 195.323C67.5196 195.323 66.478 195.527 65.5209 195.897C63.0964 192.695 59.2572 190.625 54.9325 190.625C50.3473 190.625 46.3041 192.955 43.9182 196.488C42.6479 195.746 41.1735 195.32 39.597 195.32C36.3244 195.32 33.4776 197.153 32.0348 199.849C31.3521 201.122 32.2952 202.667 33.7415 202.667L33.738 202.671Z" fill="#4992FE"/>
<path opacity="0.3" d="M339.198 78.2871H368.94C369.999 78.2871 370.686 77.161 370.186 76.2285C369.13 74.2614 367.054 72.9207 364.665 72.9207C363.869 72.9207 363.109 73.0685 362.409 73.3394C360.639 71.0029 357.835 69.4897 354.678 69.4897C351.328 69.4897 348.376 71.1894 346.634 73.7723C345.708 73.2304 344.628 72.9172 343.477 72.9172C341.088 72.9172 339.008 74.2544 337.956 76.225C337.456 77.1575 338.146 78.2835 339.202 78.2835L339.198 78.2871Z" fill="#4992FE"/>
<path opacity="0.3" d="M55.0628 71.9814C52.2266 67.1183 53.8699 60.8827 58.726 58.043C59.6832 57.4834 60.6931 57.1069 61.7206 56.8887C58.4093 56.0583 54.7849 56.463 51.6002 58.3245C45.1395 62.0967 42.9578 70.3909 46.73 76.8481C50.5023 83.3088 58.7964 85.4906 65.2537 81.7183C68.4348 79.8638 70.5707 76.9079 71.4786 73.6142C70.7819 74.3989 69.9549 75.0921 69.0013 75.6516C64.1382 78.4879 57.9026 76.8446 55.0628 71.9884V71.9814Z" fill="#4992FE"/>
</svg>
