<svg width="14" height="13" viewBox="0 0 14 13" fill="none" xmlns="http://www.w3.org/2000/svg">
<path d="M5.70684 0.533125C5.8135 0.319791 5.9735 0.177569 6.18684 0.106458C6.40017 0.0353467 6.6135 0.0353467 6.82684 0.106458C7.04017 0.177569 7.20017 0.319791 7.30684 0.533125L8.8535 3.62646L12.2135 4.10646C12.4624 4.14201 12.6579 4.26646 12.8002 4.47979C12.9424 4.65757 13.0135 4.8709 13.0135 5.11979C13.0135 5.33312 12.9246 5.5109 12.7468 5.65312L10.2935 8.05312L10.8802 11.4665C10.9157 11.6798 10.8624 11.8931 10.7202 12.1065C10.5779 12.2842 10.4002 12.4087 10.1868 12.4798C9.9735 12.5509 9.76017 12.5331 9.54684 12.4265L6.50684 10.8265L3.46684 12.4265C3.2535 12.5331 3.04017 12.5509 2.82684 12.4798C2.6135 12.4087 2.43572 12.2842 2.2935 12.1065C2.15128 11.8931 2.09795 11.6798 2.1335 11.4665L2.72017 8.05312L0.266836 5.65312C0.0890582 5.5109 0.000169277 5.33312 0.000169277 5.11979C0.000169277 4.8709 0.0712804 4.65757 0.213503 4.47979C0.355725 4.26646 0.55128 4.14201 0.800169 4.10646L4.16017 3.62646L5.70684 0.533125ZM6.50684 1.17312L5.06684 4.10646C4.92461 4.3909 4.6935 4.56868 4.3735 4.63979L1.12017 5.06646L3.46684 7.35979C3.71572 7.60868 3.80461 7.87535 3.7335 8.15979L3.20017 11.4131L6.08017 9.86646C6.36461 9.72424 6.64906 9.72424 6.9335 9.86646L9.8135 11.4131L9.28017 8.15979C9.24461 7.87535 9.3335 7.60868 9.54684 7.35979L11.8935 5.06646L8.64017 4.63979C8.32017 4.56868 8.08906 4.3909 7.94684 4.10646L6.50684 1.17312Z" fill="#066AFE"/>
</svg>
