<svg width="14" height="12" viewBox="0 0 14 12" fill="none" xmlns="http://www.w3.org/2000/svg">
<path d="M13.4935 0.000188828L13.9735 0.533522V10.5069L13.4935 11.0402H8.21348L7.36015 11.8935H6.61348L5.76015 11.0402H0.48015L0.000149727 10.5069V0.533522L0.48015 0.000188828H5.97348L6.34682 0.160189L6.98682 0.800188L7.62682 0.160189L8.00015 0.000188828H13.4935ZM6.50682 10.3469V1.76019L5.76015 1.01352H1.01348V10.0269H5.97348L6.29348 10.1869L6.50682 10.3469ZM13.0135 10.0269V1.01352H8.21348L7.52015 1.70685V10.2935L7.62682 10.1869L8.00015 10.0269H13.0135ZM5.01348 3.04019V4.00019H1.97348V3.04019H5.01348ZM5.01348 7.04019V8.00019H1.97348V7.04019H5.01348ZM1.97348 5.01352V6.02686H5.01348V5.01352H1.97348ZM12.0001 3.04019V4.00019H9.01348V3.04019H12.0001ZM9.01348 5.01352V6.02686H12.0001V5.01352H9.01348ZM9.01348 7.04019V8.00019H12.0001V7.04019H9.01348Z" fill="#0250D9"/>
</svg>
