<svg width="14" height="14" viewBox="0 0 14 14" fill="none" xmlns="http://www.w3.org/2000/svg">
<path d="M13.4935 0.000149727L13.9735 0.480149C13.9735 2.15126 13.5646 3.80459 12.7468 5.44015C12.0713 6.7557 11.1468 8.05348 9.97348 9.33348V13.4935L9.49348 13.9735H6.50682L6.13348 13.8668L0.16015 7.84015L0.000149727 7.46682V4.48015L0.48015 4.00015H4.64015C5.92015 2.82682 7.21793 1.90237 8.53348 1.22682C10.169 0.409039 11.8224 0.000149727 13.4935 0.000149727ZM1.01348 4.96015V7.30682L1.38682 7.68015C2.06237 6.72015 2.80904 5.81348 3.62682 4.96015H1.01348ZM6.66682 12.9601H8.96015V10.3468C8.14237 11.1646 7.25348 11.9113 6.29348 12.5868L6.66682 12.9601ZM5.54682 11.8401C6.40015 11.2713 7.23571 10.6135 8.05348 9.86682C9.33348 8.62237 10.3824 7.36015 11.2002 6.08015C12.2668 4.37348 12.8535 2.68459 12.9601 1.01348C11.289 1.12015 9.60015 1.70682 7.89348 2.77348C6.61348 3.59126 5.35126 4.64015 4.10682 5.92015C3.36015 6.73793 2.70237 7.57348 2.13348 8.42682L5.54682 11.8401ZM2.98682 13.9735H0.000149727V10.9868H1.01348V12.9601H2.98682V13.9735ZM9.76015 6.29348C9.51126 6.64904 9.17348 6.88015 8.74682 6.98682C8.35571 7.05793 7.98237 6.98682 7.62682 6.77348C7.30682 6.52459 7.09348 6.20459 6.98682 5.81348C6.91571 5.38682 6.98682 5.01348 7.20015 4.69348C7.44904 4.33793 7.76904 4.12459 8.16015 4.05348C8.58682 3.94682 8.96015 4.01793 9.28015 4.26682C9.63571 4.48015 9.84904 4.80015 9.92015 5.22682C10.0268 5.61793 9.97348 5.97348 9.76015 6.29348Z" fill="#066AFE"/>
</svg>
